<svg width="48" height="48" xmlns="http://www.w3.org/2000/svg" baseProfile="basic">

 <g>
  <title>Layer 1</title>
  <circle id="svg_2" fill="#212121" r="2" cy="24" cx="24"/>
  <path id="svg_3" d="m23.567,24.25c-1.715,-2.042 -2.079,-5.328 -0.696,-7.901c0.648,-1.302 1.715,-2.398 2.96,-3.178c1.272,-0.724 2.745,-1.2 4.232,-1.155c2.978,-0.03 5.855,1.768 7.146,4.359c1.351,2.566 1.037,5.811 -0.651,7.875l-0.866,-0.499c0.797,-2.167 0.492,-4.461 -0.652,-6.124c-1.148,-1.652 -3.038,-2.675 -4.979,-2.632c-1.919,0.003 -3.818,1.005 -4.923,2.66c-1.139,1.65 -1.445,3.903 -0.706,6.095l-0.865,0.5z" fill="#212121"/>
  <path id="svg_4" d="m24,24.5c-2.626,0.464 -5.654,-0.863 -7.19,-3.348c-0.804,-1.212 -1.219,-2.685 -1.272,-4.153c0.009,-1.464 0.333,-2.977 1.116,-4.243c1.463,-2.594 4.459,-4.186 7.348,-4.009c2.898,0.113 5.551,2.007 6.495,4.502l-0.867,0.501c-1.478,-1.773 -3.617,-2.657 -5.629,-2.497c-2.005,0.168 -3.836,1.293 -4.769,2.995c-0.957,1.664 -1.038,3.809 -0.157,5.593c0.859,1.811 2.658,3.203 4.925,3.658l0,1.001z" fill="#212121"/>
  <path id="svg_5" d="m24.433,24.25c-0.911,2.506 -3.574,4.464 -6.495,4.553c-1.451,0.09 -2.935,-0.286 -4.232,-0.975c-1.263,-0.74 -2.412,-1.777 -3.117,-3.088c-1.514,-2.564 -1.396,-5.955 0.202,-8.368c1.547,-2.453 4.514,-3.804 7.146,-3.374l0.001,1c-2.275,0.393 -4.11,1.804 -4.977,3.627c-0.857,1.82 -0.798,3.968 0.21,5.628c0.963,1.661 2.779,2.804 4.765,2.933c1.998,0.162 4.103,-0.7 5.631,-2.436l0.866,0.5z" fill="#212121"/>
  <path id="svg_6" d="m24.433,23.75c1.715,2.042 2.079,5.328 0.696,7.901c-0.648,1.302 -1.715,2.398 -2.96,3.178c-1.272,0.724 -2.745,1.2 -4.232,1.155c-2.978,0.03 -5.855,-1.768 -7.146,-4.359c-1.351,-2.566 -1.037,-5.811 0.651,-7.875l0.866,0.499c-0.797,2.167 -0.492,4.461 0.652,6.124c1.148,1.652 3.038,2.675 4.979,2.632c1.919,-0.003 3.818,-1.005 4.923,-2.66c1.139,-1.65 1.445,-3.903 0.706,-6.095l0.865,-0.5z" fill="#212121"/>
  <path id="svg_7" d="m24,23.5c2.626,-0.464 5.654,0.863 7.19,3.348c0.804,1.212 1.219,2.685 1.272,4.153c-0.009,1.464 -0.333,2.977 -1.116,4.243c-1.463,2.594 -4.459,4.186 -7.348,4.009c-2.898,-0.113 -5.551,-2.007 -6.495,-4.502l0.866,-0.501c1.478,1.773 3.617,2.657 5.629,2.497c2.005,-0.168 3.836,-1.293 4.769,-2.995c0.957,-1.664 1.038,-3.809 0.157,-5.593c-0.858,-1.812 -2.657,-3.204 -4.924,-3.659l0,-1z" fill="#212121"/>
  <path id="svg_8" d="m23.567,23.75c0.911,-2.506 3.574,-4.464 6.495,-4.553c1.451,-0.09 2.935,0.286 4.232,0.975c1.263,0.74 2.412,1.777 3.117,3.088c1.514,2.564 1.396,5.955 -0.202,8.368c-1.547,2.453 -4.514,3.804 -7.146,3.374l-0.001,-1c2.275,-0.393 4.11,-1.804 4.977,-3.627c0.857,-1.82 0.798,-3.968 -0.21,-5.628c-0.963,-1.661 -2.779,-2.804 -4.765,-2.933c-1.998,-0.162 -4.103,0.7 -5.631,2.436l-0.866,-0.5z" fill="#212121"/>
 </g>
</svg>